<?xml version="1.0" encoding="UTF-8"?>
<!DOCTYPE svg PUBLIC "-//W3C//DTD SVG 1.1//EN" "http://www.w3.org/Graphics/SVG/1.1/DTD/svg11.dtd">
<svg version="1.2" width="147.53mm" height="147.53mm" viewBox="4110 2610 14753 14753" preserveAspectRatio="xMidYMid" fill-rule="evenodd" stroke-width="28.222" stroke-linejoin="round" xmlns="http://www.w3.org/2000/svg" xmlns:ooo="http://xml.openoffice.org/svg/export" xmlns:xlink="http://www.w3.org/1999/xlink" xmlns:presentation="http://sun.com/xmlns/staroffice/presentation" xmlns:smil="http://www.w3.org/2001/SMIL20/" xmlns:anim="urn:oasis:names:tc:opendocument:xmlns:animation:1.0" xml:space="preserve">
 <defs class="EmbeddedBulletChars">
  <g id="bullet-char-template-57356" transform="scale(0.00048828125,-0.00048828125)">
   <path d="M 580,1141 L 1163,571 580,0 -4,571 580,1141 Z"/>
  </g>
  <g id="bullet-char-template-57354" transform="scale(0.00048828125,-0.00048828125)">
   <path d="M 8,1128 L 1137,1128 1137,0 8,0 8,1128 Z"/>
  </g>
  <g id="bullet-char-template-10146" transform="scale(0.00048828125,-0.00048828125)">
   <path d="M 174,0 L 602,739 174,1481 1456,739 174,0 Z M 1358,739 L 309,1346 659,739 1358,739 Z"/>
  </g>
  <g id="bullet-char-template-10132" transform="scale(0.00048828125,-0.00048828125)">
   <path d="M 2015,739 L 1276,0 717,0 1260,543 174,543 174,936 1260,936 717,1481 1274,1481 2015,739 Z"/>
  </g>
  <g id="bullet-char-template-10007" transform="scale(0.00048828125,-0.00048828125)">
   <path d="M 0,-2 C -7,14 -16,27 -25,37 L 356,567 C 262,823 215,952 215,954 215,979 228,992 255,992 264,992 276,990 289,987 310,991 331,999 354,1012 L 381,999 492,748 772,1049 836,1024 860,1049 C 881,1039 901,1025 922,1006 886,937 835,863 770,784 769,783 710,716 594,584 L 774,223 C 774,196 753,168 711,139 L 727,119 C 717,90 699,76 672,76 641,76 570,178 457,381 L 164,-76 C 142,-110 111,-127 72,-127 30,-127 9,-110 8,-76 1,-67 -2,-52 -2,-32 -2,-23 -1,-13 0,-2 Z"/>
  </g>
  <g id="bullet-char-template-10004" transform="scale(0.00048828125,-0.00048828125)">
   <path d="M 285,-33 C 182,-33 111,30 74,156 52,228 41,333 41,471 41,549 55,616 82,672 116,743 169,778 240,778 293,778 328,747 346,684 L 369,508 C 377,444 397,411 428,410 L 1163,1116 C 1174,1127 1196,1133 1229,1133 1271,1133 1292,1118 1292,1087 L 1292,965 C 1292,929 1282,901 1262,881 L 442,47 C 390,-6 338,-33 285,-33 Z"/>
  </g>
  <g id="bullet-char-template-9679" transform="scale(0.00048828125,-0.00048828125)">
   <path d="M 813,0 C 632,0 489,54 383,161 276,268 223,411 223,592 223,773 276,916 383,1023 489,1130 632,1184 813,1184 992,1184 1136,1130 1245,1023 1353,916 1407,772 1407,592 1407,412 1353,268 1245,161 1136,54 992,0 813,0 Z"/>
  </g>
  <g id="bullet-char-template-8226" transform="scale(0.00048828125,-0.00048828125)">
   <path d="M 346,457 C 273,457 209,483 155,535 101,586 74,649 74,723 74,796 101,859 155,911 209,963 273,989 346,989 419,989 480,963 531,910 582,859 608,796 608,723 608,648 583,586 532,535 482,483 420,457 346,457 Z"/>
  </g>
  <g id="bullet-char-template-8211" transform="scale(0.00048828125,-0.00048828125)">
   <path d="M -4,459 L 1135,459 1135,606 -4,606 -4,459 Z"/>
  </g>
  <g id="bullet-char-template-61548" transform="scale(0.00048828125,-0.00048828125)">
   <path d="M 173,740 C 173,903 231,1043 346,1159 462,1274 601,1332 765,1332 928,1332 1067,1274 1183,1159 1299,1043 1357,903 1357,740 1357,577 1299,437 1183,322 1067,206 928,148 765,148 601,148 462,206 346,322 231,437 173,577 173,740 Z"/>
  </g>
 </defs>
 <g class="Page">
  <g class="com.sun.star.drawing.CustomShape">
   <g id="id3">
    <rect class="BoundingBox" stroke="none" fill="none" x="4110" y="2610" width="14753" height="14753"/>
    <path fill="none" stroke="rgb(52,101,164)" d="M 11486,17361 L 4111,17361 4111,2611 18861,2611 18861,17361 11486,17361 Z"/>
   </g>
  </g>
  <g class="com.sun.star.drawing.ClosedBezierShape">
   <g id="id4">
    <rect class="BoundingBox" stroke="none" fill="none" x="9125" y="8889" width="4965" height="1947"/>
    <path fill="rgb(0,0,0)" stroke="none" d="M 11718,10045 C 12578,9849 13320,9441 13881,8925 13983,8830 14143,8946 14070,9070 13648,9886 12862,10518 11879,10744 10897,10977 9914,10744 9179,10198 9062,10110 9157,9937 9288,9980 10016,10205 10859,10242 11718,10045 Z"/>
   </g>
  </g>
  <g class="com.sun.star.drawing.ClosedBezierShape">
   <g id="id5">
    <rect class="BoundingBox" stroke="none" fill="none" x="9236" y="7955" width="1590" height="1080"/>
    <path fill="rgb(0,0,0)" stroke="none" d="M 10343,8750 C 10336,8742 10322,8735 10307,8721 10292,8713 10278,8699 10263,8692 10249,8677 10227,8662 10205,8648 10183,8633 10161,8619 10140,8611 10118,8597 10096,8590 10074,8590 10052,8582 10038,8582 10030,8582 L 10023,8582 9987,8590 C 9979,8597 9965,8604 9950,8611 9936,8626 9913,8640 9899,8655 9884,8669 9870,8692 9856,8713 9826,8757 9804,8793 9790,8823 9775,8852 9761,8866 9761,8866 L 9746,8895 C 9674,9019 9513,9070 9382,9005 9295,8961 9244,8881 9237,8793 L 9237,8713 C 9244,8662 9250,8589 9280,8502 9309,8414 9361,8306 9455,8204 9506,8153 9564,8095 9637,8058 9652,8044 9673,8036 9695,8029 9716,8022 9732,8007 9761,8000 L 9797,7985 C 9812,7978 9826,7978 9834,7978 L 9870,7971 9892,7963 9921,7963 9958,7956 10023,7956 C 10067,7956 10110,7956 10154,7963 10241,7978 10314,8007 10380,8036 10511,8102 10591,8182 10656,8247 10686,8284 10715,8313 10729,8342 10751,8371 10765,8400 10780,8422 10794,8444 10795,8459 10802,8466 10802,8473 10809,8480 10809,8480 10860,8611 10788,8757 10642,8808 10540,8844 10431,8823 10358,8764 L 10343,8750 Z"/>
   </g>
  </g>
  <g class="com.sun.star.drawing.ClosedBezierShape">
   <g id="id6">
    <rect class="BoundingBox" stroke="none" fill="none" x="11733" y="7460" width="1605" height="1080"/>
    <path fill="rgb(0,0,0)" stroke="none" d="M 12840,8262 C 12832,8255 12818,8247 12803,8233 12789,8226 12774,8211 12760,8204 12745,8189 12723,8175 12701,8160 12680,8145 12658,8131 12636,8124 12614,8109 12592,8102 12570,8102 12556,8095 12541,8095 12534,8095 L 12527,8095 12490,8102 C 12483,8109 12468,8116 12447,8124 12432,8138 12417,8153 12396,8167 12381,8182 12366,8204 12352,8226 12323,8269 12301,8306 12286,8335 12272,8364 12257,8378 12257,8378 L 12243,8400 C 12170,8524 12010,8575 11879,8510 11791,8466 11740,8386 11733,8298 11733,8298 11733,8269 11740,8218 11748,8167 11755,8094 11784,8007 11813,7919 11864,7811 11959,7709 12010,7658 12068,7599 12141,7563 12155,7556 12177,7541 12199,7534 12221,7527 12235,7512 12265,7505 L 12308,7490 C 12323,7483 12337,7483 12345,7483 L 12381,7476 12403,7468 12432,7468 12468,7461 12534,7461 C 12578,7461 12621,7461 12665,7468 12752,7483 12825,7512 12891,7541 13022,7607 13102,7687 13167,7752 13196,7789 13226,7818 13240,7847 13262,7876 13277,7905 13291,7927 13306,7949 13306,7963 13313,7971 13320,7978 13320,7985 13320,7985 13371,8116 13298,8262 13153,8313 13036,8364 12927,8342 12854,8277 L 12840,8262 Z"/>
   </g>
  </g>
  <g class="com.sun.star.drawing.ClosedBezierShape">
   <g id="id7">
    <rect class="BoundingBox" stroke="none" fill="none" x="7130" y="10782" width="3208" height="3271"/>
    <path fill="rgb(0,0,0)" stroke="none" d="M 9948,11343 C 9958,11446 9967,11704 10145,12123 10200,12253 10384,12759 10325,13090 10271,13390 10165,13606 10016,13756 10015,13756 10015,13756 10015,13756 10504,12947 10143,12300 10075,12143 9907,11750 9883,11495 9871,11373 9868,11344 9862,11282 9862,11282 9862,11282 9874,11114 9773,11090 9698,11071 9562,11119 9525,11289 9492,11443 9502,11618 9568,11824 9623,12021 9599,12058 9599,12058 8991,11950 8828,11344 8504,10971 8354,10782 8230,10817 8185,10895 8113,11018 8108,11174 8452,11648 8549,11782 8769,11997 8718,12052 8710,12059 8595,11997 8381,11792 8204,11622 8027,11392 7901,11205 7799,11052 7684,10983 7561,11087 7469,11164 7501,11358 7564,11467 7800,11879 7992,12048 8148,12184 8351,12362 8331,12434 8331,12434 8331,12434 8180,12526 7536,11869 7444,11774 7348,11755 7266,11844 7112,12010 7393,12383 7641,12598 7742,12685 7879,12766 7979,12825 8123,12910 8171,12938 8153,13005 8153,13005 7988,13095 7504,12709 7366,12600 7273,12626 7222,12678 7006,12898 7612,13321 7765,13460 8252,13904 9015,14051 9015,14051 9015,14051 8969,14049 8890,14039 8481,13976 8089,13773 7762,13530 7551,13374 7240,13139 7145,12885 7067,12675 7311,12421 7555,12615 7334,12415 7262,12257 7223,12194 7030,11883 7305,11512 7595,11863 7902,12235 8262,12408 8262,12408 8262,12408 7924,12242 7536,11561 7473,11449 7361,11154 7500,11036 7639,10917 7805,10978 7941,11205 8013,11327 8508,11889 8371,11713 8250,11559 7890,10979 8215,10809 8351,10738 8487,10822 8570,10925 8707,11094 8905,11504 9045,11669 9045,11669 9270,11931 9539,11985 9539,11985 9350,11687 9461,11260 9504,11101 9643,10989 9799,11026 9938,11059 9930,11162 9948,11343 Z M 7592,12648 C 7784,12814 7659,12714 7592,12648 Z"/>
   </g>
  </g>
  <g class="com.sun.star.drawing.ClosedBezierShape">
   <g id="id8">
    <rect class="BoundingBox" stroke="none" fill="none" x="12569" y="10789" width="3208" height="3264"/>
    <path fill="rgb(0,0,0)" stroke="none" d="M 13107,11026 C 13256,10987 13399,11102 13444,11260 13548,11633 13349,11985 13349,11985 13618,11931 13847,11673 13847,11673 13987,11508 14200,11094 14336,10925 14419,10822 14517,10756 14660,10808 14955,10917 14647,11514 14526,11669 14389,11845 14476,11816 14661,11613 14846,11409 14945,11293 15018,11171 15153,10944 15315,10962 15406,11036 15547,11153 15433,11449 15370,11561 14982,12242 15311,11863 15311,11863 15601,11512 15876,11883 15683,12194 15644,12257 15572,12415 15350,12615 15595,12421 15839,12675 15761,12885 15665,13139 15355,13374 15144,13530 14817,13773 14424,13976 14015,14039 13937,14049 13891,14051 13891,14051 13891,14051 14653,13904 15141,13460 15294,13321 15900,12898 15684,12678 15633,12626 15539,12600 15402,12709 14918,13095 14752,13005 14752,13005 14735,12938 14783,12910 14927,12825 15027,12766 15164,12685 15265,12598 15513,12383 15794,12010 15640,11844 15558,11755 15462,11774 15370,11869 14726,12526 14575,12434 14575,12434 14575,12434 14555,12362 14758,12184 14914,12048 15105,11879 15342,11467 15405,11358 15437,11164 15345,11087 15221,10983 15107,11052 15004,11205 14879,11392 14701,11622 14524,11792 14310,11997 14195,12059 14188,12052 14137,11997 14356,11782 14454,11648 14798,11174 14792,11018 14721,10895 14676,10817 14551,10782 14401,10971 14077,11345 13914,11952 13306,12059 13306,12059 13282,12023 13337,11826 13403,11620 13413,11444 13380,11290 13343,11121 13207,11073 13132,11091 13031,11115 13043,11284 13043,11284 13043,11284 13037,11346 13034,11374 13022,11497 12998,11751 12830,12145 12762,12302 12400,12955 12890,13757 12890,13757 12890,13757 12890,13757 12741,13606 12635,13390 12581,13090 12522,12759 12706,12253 12761,12123 12939,11704 12948,11446 12958,11343 12976,11162 12969,11062 13107,11026 Z M 15314,12648 C 15122,12814 15247,12714 15314,12648 Z"/>
   </g>
  </g>
 </g>
</svg>